<?xml version="1.0" encoding="UTF-8"?>
<svg width="266px" height="266px" viewBox="0 0 266 266" version="1.1" xmlns="http://www.w3.org/2000/svg" xmlns:xlink="http://www.w3.org/1999/xlink">
    <!-- Generator: Sketch 50.2 (55047) - http://www.bohemiancoding.com/sketch -->
    <title>icon</title>
    <desc>Created with Sketch.</desc>
    <defs></defs>
    <g id="Page-1" stroke="none" stroke-width="1" fill="none" fill-rule="evenodd" stroke-linecap="round" stroke-linejoin="round">
        <g id="Artboard" transform="translate(-267.000000, -167.000000)" stroke="#000000" stroke-width="2">
            <g id="icon" transform="translate(268.000000, 168.000000)">
                <g id="Layer_1" fill="#F2B770" fill-rule="nonzero">
                    <ellipse id="XMLID_2229_" cx="132.041905" cy="132.083943" rx="131.706667" ry="131.916057"></ellipse>
                </g>
                <g id="Layer_4" transform="translate(3.000000, 104.000000)" fill-rule="nonzero">
                    <g id="XMLID_28_">
                        <g id="XMLID_45_" transform="translate(0.000000, 54.173228)" fill="#679E4A">
                            <path d="M129.122816,105.826772 C192.9089,105.826772 246.091909,60.3044619 258.245631,0.0839895013 L0.0419093851,0.0839895013 C12.1956311,60.3464567 65.3786408,105.826772 129.122816,105.826772 Z" id="XMLID_46_"></path>
                        </g>
                        <g id="XMLID_39_" transform="translate(31.012945, 54.173228)" fill="#69AF7E">
                            <path d="M227.232686,0.0419947507 L0.251456311,62.0682415 C12.7823625,76.0104987 28.2050162,87.2230971 45.6393204,94.824147 L227.232686,0.0419947507 Z" id="XMLID_44_"></path>
                            <path d="M227.232686,0.0419947507 L131.092557,101.585302 L131.218285,101.585302 C179.623625,89.0288714 217.258252,49.6377953 227.274595,0.167979003 L227.232686,0.0419947507 Z" id="XMLID_41_"></path>
                            <polygon id="XMLID_40_" points="227.232686 0.0419947507 227.232686 0.0919947507"></polygon>
                        </g>
                        <g id="XMLID_37_" transform="translate(0.000000, 54.173228)" fill="#69AF7E">
                            <path d="M258.245631,0.0419947507 L0.0419093851,0.0839895013 C1.63446602,8.02099738 3.9394822,15.7060367 6.91504854,23.0551181 L258.245631,0.0419947507 Z" id="XMLID_38_"></path>
                        </g>
                        <path d="M257.994175,54.2152231 C258.161812,53.2073491 258.245631,52.6614173 258.245631,51.9475066 C258.245631,46.8661417 254.138511,42.6246719 249.025566,42.6246719 C248.271197,42.6246719 247.516828,42.6666667 246.804369,42.8766404 C246.552913,38.4251969 242.864887,34.855643 238.380583,34.855643 C236.871845,34.855643 235.446926,35.2335958 234.231553,35.9475066 C232.890453,31.9160105 228.950971,29.0183727 224.508576,29.0183727 C218.892718,29.0183727 214.240777,33.5538058 214.240777,39.1811024 L214.240777,54.1732283 L257.994175,54.1732283 L257.994175,54.2152231 Z" id="XMLID_36_" fill="#679E4A"></path>
                        <rect id="XMLID_35_" fill="#FCFBED" x="166.505987" y="27.0866142" width="54.1050162" height="27.0866142"></rect>
                        <polygon id="XMLID_34_" fill="#F27E5F" points="166.505987 27.0866142 194.208091 8.23097113 220.611003 27.0866142"></polygon>
                        <rect id="XMLID_33_" fill="#F2B770" x="176.145146" y="35.9055118" width="6.202589" height="6.2152231"></rect>
                        <rect id="XMLID_32_" fill="#F2B770" x="187.712136" y="35.9055118" width="6.70550162" height="6.2152231"></rect>
                        <rect id="XMLID_31_" fill="#000000" x="205.314078" y="41.4908136" width="5.78349515" height="12.7244094"></rect>
                        <path d="M162.063592,27.9685039 L161.854045,27.9685039 C164.159061,26.4146982 165.667799,23.7270341 165.583981,20.7034121 C165.458252,16.0839895 161.51877,12.4304462 156.866828,12.4304462 L156.154369,12.4304462 C156.7411,11.2965879 157.076375,10.1207349 157.118285,8.73490814 C157.160194,4.07349081 153.178803,0.335958005 148.526861,0.335958005 L144.755016,0.335958005 C140.103074,0.335958005 136.163592,4.07349081 136.163592,8.73490814 C136.163592,10.1207349 136.498867,11.2545932 137.127508,12.4304462 L136.415049,12.4304462 C131.805016,12.4304462 127.823625,16.0419948 127.697896,20.7034121 C127.614078,23.7270341 129.122816,26.4146982 131.427832,27.9685039 L131.218285,27.9685039 C126.901618,27.9685039 123.045955,31.0761155 122.459223,35.3595801 C121.746764,40.5669291 125.770065,45.1863517 130.8411,45.1863517 L162.398867,45.1863517 C167.469903,45.1863517 171.493204,40.5249344 170.780744,35.3595801 C170.194013,31.0761155 166.380259,27.9685039 162.063592,27.9685039 Z" id="XMLID_30_" fill="#679E4A"></path>
                        <polygon id="XMLID_29_" fill="#F2B770" points="155.944822 37.1653543 151.29288 40.9868766 151.29288 37.3753281 148.778317 37.3753281 148.778317 43.1706037 146.473301 45.1863517 146.221845 45.3543307 144.168285 45.3543307 144.168285 54.1732283 150.454693 54.1732283 150.454693 45.8582677 157.956472 39.5170604"></polygon>
                    </g>
                </g>
                <g id="Layer_5" transform="translate(105.000000, 24.000000)" fill-rule="nonzero">
                    <g id="XMLID_9_">
                        <ellipse id="XMLID_11_" fill="#F27E5F" cx="30" cy="30" rx="29.9577465" ry="29.7482517"></ellipse>
                        <ellipse id="XMLID_10_" fill="#F2B770" cx="30" cy="30" rx="11.3661972" ry="11.2867133"></ellipse>
                    </g>
                </g>
                <g id="Layer_2" transform="translate(10.000000, 16.000000)">
                    <g id="XMLID_8_">
                        <path d="M191.602564,31.2531746 C192.942735,26.6261905 196.670085,24.2285714 201.067521,24.2285714 C202.742735,24.2285714 204.334188,24.6071429 205.716239,25.3222222 C207.01453,25.9952381 208.605983,25.5746032 209.401709,24.3968254 C211.95641,20.6952381 216.228205,18.381746 221.044444,18.381746 C228.373504,18.381746 234.404274,23.5555556 235.116239,31.2531746 L191.602564,31.2531746 Z" id="XMLID_24_" fill="#FFFFFF" fill-rule="nonzero"></path>
                        <g id="XMLID_22_" transform="translate(7.957265, 79.079365)" fill="#FFFFFF" fill-rule="nonzero">
                            <path d="M45.0213675,0.0420634921 C39.6606838,0.0420634921 34.8444444,2.56587302 31.7452991,6.47777778 C30.1538462,8.4968254 27.4735043,9.46428571 24.9606838,8.87539683 C24.2068376,8.70714286 23.3692308,8.58095238 22.5735043,8.58095238 C19.3905983,8.58095238 16.542735,10.0111111 14.6581197,12.2825397 C13.0666667,10.8944444 11.0145299,10.0111111 8.75299145,10.0111111 C4.48119658,10.0111111 0.879487179,13.0396825 0.0418803419,17.1198413 L62.0247863,17.1198413 C61.982906,7.65555556 54.4025641,0.0420634921 45.0213675,0.0420634921 Z" id="XMLID_23_"></path>
                        </g>
                        <g id="XMLID_20_" transform="translate(10.888889, 0.000000)" fill="#FFFFFF" fill-rule="nonzero">
                            <path d="M45.8589744,0 C40.1213675,0 34.9700855,2.94444444 31.4521368,7.52936508 C29.7769231,9.75873016 27.2222222,10.9365079 24.6675214,10.4738095 C24.0393162,10.347619 23.4111111,10.3055556 22.7410256,10.3055556 C19.8931624,10.3055556 17.2547009,11.4833333 15.2444444,13.418254 C13.9461538,14.6801587 12.1452991,15.1849206 10.5119658,14.6801587 C9.84188034,14.4698413 9.12991453,14.3436508 8.41794872,14.3436508 C4.43931624,14.3436508 1.08888889,17.4984127 0.335042735,21.8730159 L64.9565628,21.8730159 C64.9982906,9.80079365 56.4128205,0 45.8589744,0 Z" id="XMLID_21_"></path>
                        </g>
                        <path d="M0,37.015873 L38.9487179,37.015873" id="XMLID_19_"></path>
                        <path d="M47.7435897,37.015873 L59.0512821,37.015873" id="XMLID_17_"></path>
                        <path d="M43.5555556,105.579365 L97.5811966,105.579365" id="XMLID_16_"></path>
                        <path d="M37.6923077,105.579365 L30.5726496,105.579365" id="XMLID_14_"></path>
                        <path d="M245,39.9603175 L197.675214,39.9603175" id="XMLID_13_"></path>
                        <path d="M183.435897,39.9603175 L188.880342,39.9603175" id="XMLID_12_"></path>
                    </g>
                </g>
            </g>
        </g>
    </g>
</svg>